<?xml version="1.0" encoding="utf-8"?>
<!-- Generator: Adobe Illustrator 14.0.0, SVG Export Plug-In  -->
<!DOCTYPE svg PUBLIC "-//W3C//DTD SVG 1.1//EN" "http://www.w3.org/Graphics/SVG/1.1/DTD/svg11.dtd" [
	<!ENTITY ns_flows "http://ns.adobe.com/Flows/1.0/">
]>
<svg version="1.1"
	 xmlns="http://www.w3.org/2000/svg" xmlns:xlink="http://www.w3.org/1999/xlink" xmlns:a="http://ns.adobe.com/AdobeSVGViewerExtensions/3.0/"
	 x="0px" y="0px" width="198px" height="234px" viewBox="0 0 198 234" enable-background="new 0 0 198 234" xml:space="preserve">
<defs>
</defs>
<rect fill="#FFFFFF" width="198" height="234"/>
<path fill="#DFDFE1" d="M0,0h198v156H0V0z"/>
<rect y="156" fill="#A3BF64" width="198" height="78"/>
<path fill="#929497" d="M9.28,15.386c0.835-0.198,1.737-0.33,2.706-0.396c0.968-0.066,1.925-0.099,2.871-0.099
	c1.012,0,2.041,0.099,3.085,0.297c1.045,0.198,1.997,0.561,2.854,1.089c0.858,0.528,1.556,1.254,2.096,2.178
	c0.539,0.924,0.809,2.101,0.809,3.531c0,1.408-0.253,2.596-0.759,3.564c-0.506,0.968-1.177,1.755-2.013,2.359
	c-0.836,0.605-1.793,1.04-2.871,1.304c-1.078,0.264-2.189,0.396-3.333,0.396c-0.11,0-0.292,0-0.544,0
	c-0.253,0-0.517-0.005-0.792-0.017c-0.275-0.011-0.544-0.027-0.809-0.049s-0.451-0.044-0.561-0.066v8.778H9.28V15.386z
	 M14.923,17.268c-0.573,0-1.122,0.011-1.65,0.033c-0.528,0.022-0.946,0.078-1.254,0.165v9.57c0.11,0.044,0.286,0.072,0.528,0.083
	c0.242,0.012,0.495,0.022,0.759,0.033c0.264,0.011,0.517,0.017,0.759,0.017s0.418,0,0.528,0c0.748,0,1.49-0.071,2.228-0.215
	c0.737-0.143,1.402-0.401,1.996-0.775c0.594-0.374,1.073-0.902,1.436-1.584c0.363-0.682,0.544-1.551,0.544-2.607
	c0-0.902-0.17-1.655-0.511-2.26c-0.341-0.605-0.792-1.089-1.353-1.452c-0.561-0.363-1.194-0.622-1.897-0.775
	C16.33,17.345,15.626,17.268,14.923,17.268z"/>
<path fill="#929497" d="M42.115,17.597H34.92v20.658h-2.739V17.597h-7.194v-2.442h17.127V17.597z"/>
<path fill="#929497" d="M63.433,32.381c0-0.924-0.275-1.677-0.825-2.26c-0.55-0.583-1.238-1.1-2.062-1.551
	c-0.825-0.451-1.722-0.875-2.69-1.271s-1.864-0.875-2.689-1.436c-0.825-0.561-1.513-1.254-2.062-2.079
	c-0.55-0.825-0.825-1.875-0.825-3.151c0-1.804,0.627-3.234,1.881-4.29c1.254-1.056,3.036-1.584,5.346-1.584
	c1.341,0,2.562,0.099,3.663,0.297c1.1,0.198,1.958,0.451,2.574,0.759l-0.825,2.409c-0.506-0.242-1.249-0.473-2.227-0.693
	c-0.979-0.22-2.085-0.33-3.317-0.33c-1.452,0-2.541,0.325-3.267,0.974c-0.726,0.649-1.089,1.414-1.089,2.293
	c0,0.858,0.275,1.573,0.825,2.145c0.55,0.572,1.237,1.084,2.062,1.535c0.825,0.451,1.721,0.896,2.689,1.336
	c0.968,0.44,1.864,0.952,2.689,1.535s1.512,1.282,2.062,2.095c0.55,0.814,0.825,1.827,0.825,3.036c0,0.99-0.176,1.881-0.528,2.673
	s-0.869,1.474-1.551,2.046c-0.682,0.573-1.507,1.012-2.475,1.32c-0.968,0.308-2.068,0.462-3.3,0.462
	c-1.65,0-3.015-0.127-4.092-0.379c-1.078-0.253-1.914-0.533-2.508-0.842l0.924-2.475c0.506,0.286,1.254,0.566,2.244,0.841
	c0.99,0.275,2.101,0.413,3.333,0.413c0.726,0,1.408-0.071,2.046-0.215c0.638-0.143,1.188-0.374,1.65-0.693
	c0.462-0.318,0.83-0.72,1.105-1.205C63.295,33.614,63.433,33.042,63.433,32.381z"/>
<path fill="#929497" d="M69.999,22.977c0.836-0.506,1.81-0.88,2.92-1.122s2.271-0.363,3.482-0.363c1.144,0,2.062,0.154,2.755,0.462
	s1.221,0.709,1.584,1.204c0.363,0.495,0.605,1.04,0.726,1.634c0.121,0.594,0.181,1.188,0.181,1.782c0,1.32-0.033,2.607-0.099,3.861
	c-0.066,1.254-0.099,2.442-0.099,3.564c0,0.814,0.033,1.584,0.099,2.31c0.066,0.726,0.187,1.397,0.363,2.013h-1.947l-0.693-2.31
	h-0.165c-0.198,0.309-0.445,0.611-0.742,0.908s-0.655,0.561-1.073,0.792s-0.902,0.424-1.452,0.578
	c-0.55,0.153-1.177,0.231-1.881,0.231s-1.358-0.11-1.963-0.33c-0.605-0.22-1.127-0.533-1.567-0.94
	c-0.44-0.407-0.787-0.896-1.04-1.469c-0.253-0.572-0.379-1.221-0.379-1.947c0-0.968,0.198-1.776,0.594-2.426
	c0.396-0.648,0.952-1.166,1.667-1.551c0.715-0.385,1.573-0.66,2.574-0.825c1.001-0.165,2.106-0.248,3.316-0.248
	c0.308,0,0.61,0,0.908,0c0.297,0,0.599,0.022,0.907,0.066c0.066-0.66,0.099-1.254,0.099-1.782c0-1.209-0.242-2.057-0.726-2.541
	c-0.484-0.483-1.364-0.726-2.64-0.726c-0.374,0-0.775,0.028-1.204,0.083c-0.429,0.055-0.87,0.132-1.32,0.231
	c-0.451,0.099-0.88,0.22-1.287,0.363s-0.765,0.303-1.072,0.479L69.999,22.977z M74.685,36.209c0.616,0,1.166-0.083,1.65-0.248
	s0.902-0.374,1.254-0.627c0.352-0.253,0.644-0.533,0.875-0.842c0.231-0.308,0.401-0.604,0.511-0.891v-2.739
	c-0.308-0.021-0.622-0.038-0.94-0.049c-0.319-0.011-0.633-0.017-0.94-0.017c-0.682,0-1.348,0.039-1.997,0.116
	c-0.649,0.077-1.221,0.22-1.716,0.429c-0.495,0.209-0.891,0.495-1.188,0.858c-0.297,0.363-0.446,0.82-0.446,1.37
	c0,0.771,0.275,1.402,0.825,1.897C73.123,35.962,73.827,36.209,74.685,36.209z"/>
<path fill="#929497" d="M97.224,38.255v-9.405c0-1.716-0.247-3.008-0.742-3.878c-0.495-0.869-1.403-1.303-2.723-1.303
	c-1.167,0-2.128,0.313-2.887,0.94c-0.759,0.627-1.293,1.414-1.601,2.359v11.286h-2.64v-16.5h1.848l0.495,2.013h0.132
	c0.528-0.704,1.237-1.282,2.128-1.733c0.891-0.45,1.952-0.676,3.185-0.676c0.902,0,1.694,0.104,2.376,0.313
	c0.682,0.209,1.248,0.578,1.699,1.105c0.451,0.528,0.792,1.238,1.023,2.128c0.23,0.891,0.346,2.019,0.346,3.383v9.966H97.224z"/>
<path fill="#929497" d="M111.941,33.768c0-0.66-0.197-1.177-0.594-1.551c-0.396-0.374-0.886-0.688-1.469-0.94
	c-0.583-0.252-1.221-0.495-1.914-0.726s-1.331-0.528-1.914-0.891c-0.583-0.363-1.072-0.83-1.469-1.402
	c-0.396-0.572-0.594-1.342-0.594-2.31c0-1.584,0.451-2.744,1.354-3.481c0.902-0.737,2.156-1.105,3.762-1.105
	c1.188,0,2.184,0.104,2.986,0.313c0.803,0.209,1.502,0.457,2.096,0.743l-0.627,2.178c-0.506-0.242-1.117-0.456-1.832-0.644
	c-0.715-0.187-1.479-0.28-2.293-0.28c-0.969,0-1.678,0.165-2.129,0.495c-0.451,0.33-0.676,0.902-0.676,1.716
	c0,0.572,0.197,1.018,0.594,1.336c0.396,0.319,0.885,0.605,1.469,0.858c0.582,0.253,1.221,0.501,1.914,0.743
	c0.693,0.242,1.33,0.561,1.914,0.957c0.582,0.396,1.072,0.896,1.469,1.501c0.396,0.605,0.594,1.402,0.594,2.393
	c0,0.704-0.115,1.364-0.347,1.98c-0.231,0.616-0.589,1.144-1.073,1.584c-0.484,0.44-1.084,0.787-1.798,1.04
	c-0.716,0.252-1.557,0.379-2.524,0.379c-1.254,0-2.322-0.121-3.201-0.363c-0.881-0.242-1.617-0.528-2.211-0.858l0.792-2.244
	c0.506,0.286,1.165,0.55,1.979,0.792s1.639,0.363,2.476,0.363c0.945,0,1.727-0.187,2.343-0.561
	C111.633,35.407,111.941,34.736,111.941,33.768z"/>
<path d="M15.94,61.872h1.44v5.868l0.774-0.252l3.654-5.616h1.656l-3.636,5.472l-0.72,0.576l0.9,0.738l4.014,5.814h-1.836
	l-3.978-5.832H17.38v5.832h-1.44v-6.048l-0.756,0.252l-3.978,5.796H9.479l3.978-5.634l0.864-0.684l-0.828-0.63L9.73,61.872h1.746
	l3.654,5.652h0.81V61.872z"/>
<path d="M28.044,71.304l0.506,1.728h0.09l0.397-1.746l1.752-5.814h1.44l-2.664,8.082c-0.204,0.588-0.405,1.158-0.603,1.71
	c-0.198,0.552-0.417,1.044-0.657,1.476c-0.24,0.432-0.51,0.777-0.81,1.035c-0.3,0.258-0.648,0.387-1.044,0.387
	c-0.432,0-0.786-0.06-1.062-0.18l0.252-1.242c0.156,0.06,0.306,0.09,0.45,0.09c0.336,0,0.66-0.177,0.972-0.531
	c0.312-0.354,0.57-0.963,0.774-1.827l-3.618-9h1.656L28.044,71.304z"/>
<path d="M36.046,70.422h-0.828v4.05h-1.44v-9h1.44v4.068l0.774-0.252l2.88-3.816h1.566l-2.79,3.618l-0.756,0.594l0.936,0.72
	l3.006,4.068h-1.782L36.046,70.422z"/>
<path d="M47.998,69.144l0.054-1.116h-0.054L47.26,69.18l-4.05,5.292h-0.828v-9h1.44v5.49l-0.054,1.062h0.072l0.702-1.116l4.05-5.436
	h0.846v9h-1.44V69.144z"/>
<path d="M63.658,61.872h1.35l-1.242,5.868l0.666-0.252l4.626-5.616h1.746l-4.608,5.472L65.35,67.92l0.72,0.738l2.592,5.814h-1.584
	l-2.61-5.832h-0.9l-1.224,5.832h-1.35l1.278-6.048l-0.666,0.234l-4.968,5.814h-1.8l4.95-5.634l0.954-0.684l-0.612-0.63l-2.394-5.652
	h1.584l2.268,5.652h0.864L63.658,61.872z"/>
<path d="M72.28,71.304l0.09,1.728h0.09l0.684-1.746l2.988-5.814h1.44L73.324,73.5c-0.312,0.588-0.621,1.161-0.927,1.719
	c-0.306,0.558-0.621,1.056-0.945,1.494c-0.324,0.438-0.66,0.789-1.008,1.053c-0.348,0.264-0.708,0.396-1.08,0.396
	c-0.205,0-0.381-0.012-0.531-0.036S68.548,78.06,68.428,78l0.432-1.242c0.132,0.048,0.276,0.072,0.432,0.072
	c0.348,0,0.696-0.18,1.044-0.54c0.348-0.36,0.738-0.966,1.17-1.818l-1.548-9h1.44L72.28,71.304z"/>
<path d="M80.488,70.422h-0.972l-0.846,4.05h-1.35l1.908-9h1.35l-0.864,4.068l0.738-0.234l3.348-3.834h1.62l-3.294,3.618
	l-0.828,0.594l0.72,0.72l2.016,4.068h-1.512L80.488,70.422z"/>
<path d="M88.875,65.472l-1.26,5.994c-0.072,0.324-0.108,0.624-0.108,0.9c0,0.336,0.066,0.615,0.198,0.837
	c0.132,0.222,0.372,0.333,0.72,0.333c0.288,0,0.579-0.072,0.873-0.216s0.576-0.33,0.846-0.558s0.516-0.48,0.738-0.756
	s0.405-0.546,0.549-0.81l1.206-5.724h1.35l-1.134,5.346c-0.048,0.204-0.096,0.453-0.144,0.747c-0.048,0.294-0.093,0.603-0.135,0.927
	c-0.042,0.324-0.075,0.639-0.099,0.945c-0.024,0.306-0.036,0.573-0.036,0.801v0.234h-1.062v-1.71h-0.072
	c-0.18,0.24-0.387,0.474-0.621,0.702s-0.492,0.432-0.774,0.612c-0.282,0.18-0.585,0.327-0.909,0.441
	c-0.324,0.114-0.666,0.171-1.026,0.171c-0.264,0-0.507-0.03-0.729-0.09c-0.222-0.06-0.417-0.165-0.585-0.315
	c-0.168-0.15-0.3-0.348-0.396-0.594c-0.096-0.246-0.144-0.561-0.144-0.945c0-0.42,0.06-0.894,0.18-1.422l1.224-5.85H88.875z"/>
<path d="M15.796,83.471h2.34v5.598l0.63-0.252l2.61-5.346h2.772l-2.934,5.526l-0.846,0.612l1.026,0.756l3.312,5.706h-2.97
	l-2.898-5.472h-0.702v5.472h-2.34v-5.688l-0.648,0.252l-2.898,5.436h-2.88l3.294-5.526l0.972-0.702l-0.936-0.666l-3.078-5.706h2.862
	l2.61,5.382h0.702V83.471z"/>
<path d="M28.504,92.129l0.324,1.404h0.108l0.234-1.422l1.368-5.04h2.412l-2.736,8.118c-0.229,0.672-0.447,1.287-0.657,1.845
	s-0.441,1.041-0.693,1.449c-0.252,0.408-0.531,0.723-0.837,0.945c-0.306,0.222-0.669,0.333-1.089,0.333
	c-0.624,0-1.122-0.102-1.494-0.306l0.432-1.872c0.18,0.072,0.36,0.108,0.54,0.108c0.276,0,0.543-0.117,0.801-0.351
	c0.258-0.234,0.453-0.657,0.585-1.269l-3.762-9h2.808L28.504,92.129z"/>
<path d="M36.803,92.345h-0.63v3.726h-2.34v-9h2.34v3.834l0.558-0.252l2.106-3.582h2.502l-2.178,3.42l-0.918,0.684l1.008,0.702
	l2.43,4.194h-2.682L36.803,92.345z"/>
<path d="M48.052,91.967l0.09-1.278h-0.054l-0.774,1.314l-3.204,4.068h-1.476v-9h2.34v4.284l-0.108,1.224h0.072l0.738-1.278
	l3.24-4.23h1.476v9h-2.34V91.967z"/>
<path d="M64.145,83.471h2.232l-1.188,5.598l0.612-0.198l3.51-5.4h2.772l-3.942,5.526l-0.954,0.612l0.756,0.756l2.016,5.706h-2.592
	l-1.764-5.472h-0.738l-1.152,5.472H61.48l1.206-5.688l-0.594,0.216l-3.834,5.472h-2.862l4.248-5.526l1.098-0.702l-0.684-0.666
	l-1.764-5.706h2.52l1.476,5.382h0.72L64.145,83.471z"/>
<path d="M73.876,92.129l0.018,1.404h0.108l0.485-1.422l2.456-5.04h2.34l-4.311,8.082c-0.36,0.672-0.7,1.29-1.019,1.854
	c-0.318,0.564-0.64,1.05-0.964,1.458c-0.325,0.408-0.662,0.726-1.01,0.954c-0.349,0.228-0.721,0.342-1.118,0.342
	c-0.529,0-0.926-0.092-1.19-0.275l0.597-1.795c0.072,0.036,0.148,0.06,0.226,0.072c0.079,0.012,0.154,0.018,0.227,0.018
	c0.289,0,0.585-0.138,0.886-0.413c0.302-0.275,0.603-0.718,0.904-1.328l-1.688-8.97h2.502L73.876,92.129z"/>
<path d="M82.18,92.345h-0.774l-0.774,3.726H78.4l1.908-9h2.232l-0.828,3.834l0.63-0.234l2.502-3.6h2.412l-2.628,3.42L83.6,91.175
	l0.813,0.702l1.422,4.194h-2.34L82.18,92.345z"/>
<path d="M90.946,87.071l-1.17,5.562c-0.072,0.36-0.108,0.66-0.108,0.9c0,0.24,0.048,0.426,0.145,0.558
	c0.097,0.132,0.266,0.198,0.507,0.198c0.205,0,0.413-0.051,0.625-0.153c0.211-0.102,0.413-0.234,0.606-0.396s0.371-0.342,0.534-0.54
	c0.164-0.198,0.299-0.393,0.408-0.585l1.152-5.544h2.214l-1.134,5.4c-0.06,0.24-0.111,0.522-0.153,0.846
	c-0.042,0.324-0.081,0.657-0.117,0.999c-0.036,0.342-0.06,0.669-0.072,0.981c-0.012,0.312-0.012,0.57,0,0.774h-1.782l-0.09-1.62
	H92.44c-0.168,0.228-0.363,0.453-0.585,0.675c-0.222,0.222-0.468,0.423-0.738,0.603c-0.27,0.18-0.564,0.324-0.882,0.432
	c-0.318,0.108-0.657,0.162-1.017,0.162c-0.564,0-1.02-0.141-1.368-0.423c-0.348-0.282-0.522-0.801-0.522-1.557
	c0-0.444,0.06-0.93,0.18-1.458l1.242-5.814H90.946z"/>
<path fill="#D3336D" d="M137.336,43.104c2.786-1.686,6.031-2.932,9.735-3.74c3.702-0.806,7.571-1.21,11.604-1.21
	c3.812,0,6.875,0.514,9.186,1.54c2.31,1.028,4.07,2.365,5.279,4.015c1.211,1.65,2.017,3.465,2.42,5.445
	c0.402,1.98,0.605,3.96,0.605,5.94c0,4.4-0.109,8.69-0.33,12.87c-0.22,4.18-0.33,8.14-0.33,11.88c0,2.714,0.11,5.28,0.33,7.7
	c0.221,2.42,0.623,4.658,1.21,6.71h-6.489l-2.311-7.7h-0.55c-0.66,1.028-1.485,2.035-2.476,3.025c-0.99,0.99-2.183,1.87-3.574,2.64
	c-1.395,0.77-3.008,1.413-4.84,1.925c-1.834,0.512-3.924,0.77-6.271,0.77c-2.348,0-4.528-0.368-6.545-1.1
	c-2.019-0.732-3.759-1.777-5.226-3.135c-1.467-1.356-2.623-2.987-3.465-4.895c-0.844-1.906-1.265-4.07-1.265-6.49
	c0-3.226,0.66-5.921,1.979-8.085c1.32-2.162,3.172-3.886,5.556-5.17c2.382-1.282,5.242-2.2,8.579-2.75
	c3.337-0.55,7.021-0.825,11.056-0.825c1.026,0,2.035,0,3.024,0c0.99,0,1.998,0.074,3.025,0.22c0.221-2.2,0.33-4.18,0.33-5.94
	c0-4.032-0.808-6.856-2.42-8.47c-1.613-1.612-4.548-2.42-8.8-2.42c-1.248,0-2.585,0.093-4.015,0.275
	c-1.431,0.184-2.898,0.44-4.4,0.77c-1.504,0.33-2.934,0.734-4.29,1.21c-1.358,0.478-2.549,1.009-3.575,1.595L137.336,43.104z
	 M152.956,87.214c2.052,0,3.886-0.275,5.5-0.825c1.612-0.55,3.007-1.246,4.181-2.09c1.172-0.842,2.145-1.777,2.914-2.805
	c0.771-1.026,1.338-2.016,1.705-2.97v-9.13c-1.027-0.072-2.072-0.127-3.135-0.165c-1.064-0.036-2.109-0.055-3.135-0.055
	c-2.273,0-4.493,0.129-6.655,0.385c-2.164,0.258-4.069,0.734-5.72,1.43c-1.65,0.698-2.971,1.65-3.961,2.86
	c-0.989,1.21-1.484,2.733-1.484,4.565c0,2.568,0.916,4.675,2.75,6.325C147.748,86.389,150.096,87.214,152.956,87.214z"/>
<path d="M104.591,132.333h-5.814v11.269h-1.494v-12.601h8.802v12.601h-1.494V132.333z"/>
<path d="M109.001,134.602h0.989l0.271,1.08h0.071c0.277-0.42,0.633-0.741,1.072-0.963c0.438-0.223,0.938-0.334,1.502-0.334
	c1.2,0,2.094,0.354,2.683,1.062c0.588,0.708,0.882,1.865,0.882,3.474c0,0.757-0.1,1.438-0.297,2.043
	c-0.198,0.606-0.477,1.119-0.837,1.539c-0.36,0.421-0.796,0.744-1.306,0.972c-0.51,0.229-1.076,0.342-1.701,0.342
	c-0.443,0-0.795-0.026-1.053-0.08c-0.258-0.055-0.537-0.146-0.836-0.279v3.744h-1.44V134.602z M112.637,135.645
	c-0.611,0-1.096,0.16-1.449,0.478s-0.603,0.801-0.746,1.449v4.464c0.215,0.168,0.461,0.297,0.737,0.387s0.642,0.135,1.099,0.135
	c0.828,0,1.484-0.309,1.971-0.927s0.729-1.526,0.729-2.728c0-0.491-0.042-0.938-0.126-1.34s-0.219-0.744-0.405-1.026
	c-0.186-0.282-0.426-0.501-0.72-0.657S113.068,135.645,112.637,135.645z"/>
<path d="M124.354,138.273l0.054-1.116h-0.054l-0.737,1.151l-4.051,5.293h-0.828v-9h1.44v5.49l-0.054,1.061h0.072l0.701-1.115
	l4.051-5.436h0.846v9h-1.44V138.273z"/>
<path d="M133.408,135.861h-2.628c-0.036,0.504-0.072,1.047-0.108,1.629c-0.035,0.582-0.09,1.164-0.162,1.746
	s-0.168,1.141-0.287,1.674c-0.121,0.534-0.273,1.005-0.458,1.413c-0.185,0.407-0.411,0.735-0.68,0.981s-0.587,0.368-0.957,0.368
	c-0.227,0-0.423-0.012-0.591-0.036c-0.167-0.023-0.316-0.065-0.447-0.125l0.217-1.207c0.144,0.049,0.299,0.072,0.468,0.072
	c0.239,0,0.456-0.102,0.647-0.306s0.36-0.591,0.504-1.161c0.145-0.57,0.264-1.359,0.36-2.367s0.162-2.322,0.198-3.941h5.363v9
	h-1.439V135.861z"/>
<path d="M144.189,142.881c-0.359,0.288-0.812,0.516-1.358,0.684s-1.125,0.252-1.737,0.252c-0.684,0-1.277-0.11-1.781-0.332
	c-0.504-0.223-0.918-0.541-1.242-0.954c-0.324-0.414-0.564-0.909-0.721-1.485s-0.234-1.224-0.234-1.943
	c0-1.537,0.343-2.707,1.027-3.51c0.684-0.805,1.661-1.207,2.934-1.207c0.408,0,0.815,0.045,1.224,0.135
	c0.407,0.09,0.774,0.262,1.099,0.514c0.323,0.252,0.588,0.609,0.791,1.07c0.204,0.463,0.307,1.072,0.307,1.828
	c0,0.396-0.036,0.834-0.108,1.313h-5.778c0,0.528,0.055,0.996,0.162,1.403c0.108,0.408,0.276,0.754,0.504,1.035
	c0.229,0.283,0.525,0.498,0.892,0.648s0.812,0.225,1.341,0.225c0.408,0,0.816-0.072,1.225-0.215
	c0.407-0.145,0.713-0.312,0.918-0.505L144.189,142.881z M141.094,135.645c-0.708,0-1.275,0.187-1.701,0.559
	s-0.681,1.008-0.765,1.908h4.464c0-0.912-0.174-1.551-0.521-1.918C142.222,135.828,141.73,135.645,141.094,135.645z"/>
<path d="M152.488,135.861h-2.809v7.74h-1.439v-7.74h-2.809v-1.26h7.057V135.861z"/>
<path d="M160.191,142.881c-0.359,0.288-0.812,0.516-1.358,0.684s-1.125,0.252-1.737,0.252c-0.684,0-1.277-0.11-1.781-0.332
	c-0.504-0.223-0.918-0.541-1.242-0.954c-0.324-0.414-0.564-0.909-0.721-1.485s-0.234-1.224-0.234-1.943
	c0-1.537,0.343-2.707,1.027-3.51c0.684-0.805,1.661-1.207,2.934-1.207c0.408,0,0.815,0.045,1.224,0.135
	c0.407,0.09,0.774,0.262,1.099,0.514c0.323,0.252,0.588,0.609,0.791,1.07c0.204,0.463,0.307,1.072,0.307,1.828
	c0,0.396-0.036,0.834-0.108,1.313h-5.778c0,0.528,0.055,0.996,0.162,1.403c0.108,0.408,0.276,0.754,0.504,1.035
	c0.229,0.283,0.525,0.498,0.892,0.648s0.812,0.225,1.341,0.225c0.408,0,0.816-0.072,1.225-0.215
	c0.407-0.145,0.713-0.312,0.918-0.505L160.191,142.881z M157.096,135.645c-0.708,0-1.275,0.187-1.701,0.559
	s-0.681,1.008-0.765,1.908h4.464c0-0.912-0.174-1.551-0.521-1.918C158.224,135.828,157.732,135.645,157.096,135.645z"/>
<path d="M167.213,135.861h-2.629c-0.035,0.504-0.072,1.047-0.107,1.629c-0.036,0.582-0.09,1.164-0.162,1.746
	s-0.168,1.141-0.288,1.674c-0.12,0.534-0.272,1.005-0.458,1.413c-0.185,0.407-0.411,0.735-0.68,0.981
	c-0.268,0.246-0.587,0.368-0.957,0.368c-0.227,0-0.423-0.012-0.59-0.036c-0.168-0.023-0.316-0.065-0.447-0.125l0.216-1.207
	c0.144,0.049,0.3,0.072,0.468,0.072c0.24,0,0.456-0.102,0.648-0.306c0.191-0.204,0.359-0.591,0.504-1.161s0.264-1.359,0.359-2.367
	c0.097-1.008,0.162-2.322,0.199-3.941h5.363v9h-1.439V135.861z"/>
<path d="M177.04,138.273l0.054-1.116h-0.054l-0.737,1.151l-4.051,5.293h-0.828v-9h1.44v5.49l-0.054,1.061h0.072l0.701-1.115
	l4.051-5.436h0.846v9h-1.44V138.273z"/>
<path d="M9.265,170.35c0.405-0.244,0.877-0.426,1.416-0.543s1.101-0.176,1.688-0.176c0.555,0,1,0.074,1.336,0.224
	s0.592,0.344,0.768,0.584c0.176,0.239,0.293,0.504,0.352,0.792c0.059,0.287,0.088,0.576,0.088,0.863
	c0,0.641-0.016,1.265-0.048,1.873c-0.032,0.607-0.048,1.184-0.048,1.728c0,0.395,0.016,0.769,0.048,1.12
	c0.032,0.352,0.09,0.678,0.176,0.977h-0.944l-0.336-1.121h-0.08c-0.096,0.15-0.216,0.297-0.36,0.44s-0.318,0.272-0.52,0.384
	c-0.203,0.112-0.438,0.205-0.704,0.28c-0.267,0.074-0.571,0.112-0.912,0.112s-0.659-0.054-0.952-0.16
	c-0.293-0.107-0.546-0.259-0.76-0.456s-0.381-0.435-0.504-0.712c-0.123-0.277-0.184-0.592-0.184-0.944
	c0-0.47,0.096-0.861,0.288-1.176s0.461-0.565,0.808-0.752c0.346-0.187,0.762-0.32,1.248-0.4c0.485-0.079,1.021-0.12,1.608-0.12
	c0.149,0,0.296,0,0.44,0s0.291,0.012,0.44,0.032c0.032-0.319,0.048-0.608,0.048-0.864c0-0.586-0.117-0.997-0.352-1.231
	c-0.234-0.235-0.661-0.353-1.28-0.353c-0.182,0-0.376,0.014-0.584,0.041c-0.208,0.025-0.421,0.063-0.64,0.111
	s-0.427,0.107-0.624,0.176c-0.197,0.07-0.371,0.146-0.52,0.232L9.265,170.35z M11.537,176.766c0.298,0,0.565-0.039,0.8-0.119
	c0.235-0.08,0.438-0.182,0.608-0.305c0.17-0.122,0.312-0.258,0.424-0.408c0.112-0.148,0.194-0.293,0.248-0.432v-1.328
	c-0.149-0.01-0.302-0.018-0.456-0.023c-0.155-0.006-0.307-0.008-0.456-0.008c-0.331,0-0.653,0.019-0.968,0.056
	c-0.315,0.038-0.592,0.106-0.832,0.208c-0.24,0.102-0.432,0.24-0.576,0.416s-0.216,0.397-0.216,0.664c0,0.373,0.133,0.68,0.4,0.92
	S11.121,176.766,11.537,176.766z"/>
<path d="M22.336,171.182c0.352-0.512,0.742-0.871,1.168-1.079c0.426-0.208,0.96-0.312,1.6-0.312c0.981,0,1.736,0.319,2.264,0.959
	c0.528,0.641,0.792,1.584,0.792,2.832c0,1.44-0.307,2.528-0.92,3.264c-0.614,0.736-1.47,1.104-2.568,1.104
	c-1.174,0-2.054-0.405-2.64-1.216c-0.587-0.811-0.88-2.086-0.88-3.824c0-0.917,0.045-1.701,0.136-2.352s0.224-1.2,0.4-1.648
	c0.176-0.447,0.39-0.805,0.64-1.072c0.25-0.266,0.533-0.477,0.848-0.631c0.314-0.155,0.658-0.265,1.032-0.328
	c0.374-0.064,0.773-0.117,1.2-0.16c0.555-0.054,0.989-0.115,1.304-0.185c0.314-0.069,0.568-0.194,0.76-0.376l0.144,1.152
	c-0.107,0.096-0.224,0.176-0.352,0.24c-0.128,0.063-0.283,0.117-0.464,0.16c-0.182,0.042-0.397,0.08-0.648,0.111
	c-0.251,0.032-0.542,0.059-0.872,0.08c-0.459,0.031-0.862,0.088-1.208,0.168c-0.347,0.08-0.646,0.234-0.896,0.464
	c-0.251,0.229-0.448,0.555-0.592,0.976c-0.144,0.422-0.243,0.979-0.296,1.672H22.336z M22.48,173.774
	c0,0.405,0.042,0.794,0.128,1.168c0.085,0.374,0.216,0.702,0.392,0.983c0.176,0.283,0.403,0.504,0.68,0.664s0.603,0.24,0.976,0.24
	c0.736,0,1.282-0.264,1.64-0.792c0.357-0.528,0.536-1.31,0.536-2.344c0-0.405-0.038-0.778-0.112-1.12
	c-0.075-0.342-0.192-0.637-0.352-0.888s-0.363-0.442-0.608-0.576c-0.246-0.134-0.539-0.2-0.88-0.2
	c-0.832-0.01-1.44,0.232-1.824,0.729S22.48,172.846,22.48,173.774z"/>
<path d="M34.448,169.774c0.374-0.021,0.765-0.048,1.176-0.08c0.41-0.032,0.92-0.048,1.528-0.048c1.056,0,1.813,0.162,2.272,0.488
	c0.458,0.325,0.688,0.818,0.688,1.479c0,0.374-0.109,0.739-0.328,1.097s-0.579,0.621-1.08,0.791v0.064
	c0.629,0.117,1.072,0.336,1.328,0.656s0.384,0.746,0.384,1.279c0,0.832-0.299,1.436-0.896,1.809c-0.598,0.373-1.494,0.56-2.688,0.56
	c-0.448,0-0.864-0.013-1.248-0.04c-0.384-0.026-0.763-0.056-1.136-0.088V169.774z M37.296,173.135c0.192,0,0.378-0.032,0.56-0.097
	c0.181-0.063,0.344-0.151,0.488-0.264s0.261-0.243,0.352-0.392c0.09-0.15,0.136-0.31,0.136-0.48c0-0.427-0.128-0.723-0.384-0.889
	c-0.256-0.164-0.704-0.248-1.344-0.248c-0.342,0-0.611,0.006-0.808,0.017c-0.198,0.011-0.387,0.021-0.568,0.032v2.32H37.296z
	 M35.729,176.687c0.202,0.021,0.402,0.037,0.6,0.048s0.429,0.016,0.696,0.016c0.714,0,1.245-0.102,1.592-0.304s0.52-0.55,0.52-1.04
	c0-0.384-0.146-0.695-0.44-0.936s-0.813-0.36-1.56-0.36h-1.408V176.687z"/>
<path d="M51.376,170.879h-3.392v6.879h-1.28v-8h4.672V170.879z"/>
<path d="M63.056,179.791h-0.864l-0.24-2.033h-6.016l-0.24,2.033h-0.864v-3.152h0.944c0.085-0.117,0.197-0.328,0.336-0.633
	c0.139-0.304,0.274-0.73,0.408-1.279c0.133-0.549,0.25-1.232,0.352-2.049c0.101-0.815,0.163-1.789,0.184-2.92h4.832v6.881h1.168
	V179.791z M60.608,176.639v-5.76h-2.4c-0.021,0.447-0.059,0.936-0.112,1.463c-0.054,0.528-0.126,1.057-0.216,1.584
	c-0.091,0.528-0.206,1.027-0.344,1.496c-0.139,0.47-0.299,0.875-0.48,1.217H60.608z"/>
<path d="M74.751,177.118c-0.32,0.257-0.723,0.459-1.208,0.608c-0.485,0.148-1,0.224-1.544,0.224c-0.608,0-1.136-0.099-1.584-0.296
	c-0.448-0.197-0.816-0.48-1.104-0.848c-0.288-0.368-0.501-0.809-0.64-1.32c-0.139-0.512-0.208-1.088-0.208-1.729
	c0-1.365,0.304-2.404,0.912-3.119c0.608-0.715,1.478-1.072,2.608-1.072c0.362,0,0.725,0.04,1.088,0.12
	c0.362,0.079,0.688,0.231,0.976,0.456c0.288,0.224,0.522,0.541,0.704,0.951c0.182,0.411,0.272,0.953,0.272,1.625
	c0,0.352-0.032,0.741-0.096,1.168h-5.136c0,0.469,0.048,0.885,0.144,1.248c0.096,0.362,0.246,0.669,0.448,0.92
	c0.203,0.25,0.466,0.442,0.792,0.576c0.325,0.133,0.722,0.199,1.192,0.199c0.362,0,0.725-0.064,1.088-0.191
	c0.363-0.129,0.635-0.277,0.816-0.448L74.751,177.118z M69.6,167.614c0-0.245,0.072-0.442,0.216-0.592
	c0.144-0.149,0.333-0.224,0.568-0.224c0.234,0,0.424,0.074,0.568,0.224s0.216,0.347,0.216,0.592c0,0.224-0.072,0.411-0.216,0.56
	c-0.144,0.15-0.333,0.225-0.568,0.225c-0.235,0-0.424-0.074-0.568-0.225C69.672,168.025,69.6,167.838,69.6,167.614z M72,170.687
	c-0.629,0-1.133,0.165-1.512,0.495c-0.379,0.332-0.605,0.896-0.68,1.697h3.968c0-0.811-0.155-1.379-0.464-1.705
	C73.002,170.85,72.565,170.687,72,170.687z M72.672,167.614c0-0.245,0.072-0.442,0.216-0.592s0.333-0.224,0.568-0.224
	c0.246,0,0.44,0.074,0.584,0.224s0.216,0.347,0.216,0.592c0,0.224-0.072,0.411-0.216,0.56c-0.144,0.15-0.338,0.225-0.584,0.225
	c-0.235,0-0.424-0.074-0.568-0.225C72.744,168.025,72.672,167.838,72.672,167.614z"/>
<path d="M83.92,174.223l-2.352,3.535h-1.472l2.528-3.664l0.544-0.479l-0.816-0.608l-2.08-3.248h1.36l2.208,3.457h0.832v-3.457h1.248
	v3.617l0.752-0.225l2.224-3.393h1.344l-2.176,3.248l-0.624,0.512l0.816,0.641l2.368,3.6h-1.52l-2.352-3.6H85.92v3.6h-1.248v-3.76
	L83.92,174.223z"/>
<path d="M96.896,174.19v-1.04h1.12c0.191,0,0.381-0.032,0.568-0.096c0.186-0.064,0.354-0.152,0.504-0.264
	c0.148-0.113,0.27-0.246,0.359-0.4c0.091-0.154,0.137-0.317,0.137-0.488c0-0.416-0.145-0.709-0.433-0.88s-0.72-0.257-1.296-0.257
	c-0.416,0-0.797,0.064-1.144,0.193c-0.347,0.127-0.616,0.25-0.808,0.367l-0.368-0.992c0.32-0.182,0.696-0.341,1.128-0.479
	s0.946-0.208,1.543-0.208c1.771,0,2.656,0.656,2.656,1.968c0,0.374-0.119,0.739-0.359,1.097s-0.584,0.61-1.032,0.76v0.063
	c0.629,0.118,1.069,0.342,1.319,0.673c0.251,0.33,0.377,0.768,0.377,1.311c0,0.342-0.07,0.656-0.209,0.945
	c-0.139,0.287-0.346,0.538-0.623,0.752c-0.277,0.213-0.627,0.381-1.049,0.504c-0.421,0.122-0.909,0.184-1.463,0.184
	c-0.545,0-0.996-0.048-1.353-0.145c-0.358-0.096-0.68-0.213-0.968-0.352l0.368-1.057c0.245,0.14,0.541,0.246,0.888,0.32
	c0.347,0.075,0.723,0.112,1.128,0.112c0.65,0,1.146-0.112,1.487-0.336c0.342-0.224,0.513-0.565,0.513-1.024
	c0-0.384-0.16-0.686-0.479-0.904c-0.32-0.218-0.849-0.327-1.584-0.327H96.896z"/>
<path d="M112.447,173.022l0.049-0.992h-0.049l-0.656,1.024l-3.6,4.703h-0.736v-8h1.281v4.881l-0.049,0.943h0.064l0.623-0.992
	l3.601-4.832h0.752v8h-1.28V173.022z"/>
<path d="M125.455,173.022l0.049-0.992h-0.049l-0.656,1.024l-3.6,4.703h-0.736v-8h1.281v4.881l-0.049,0.943h0.064l0.623-0.992
	l3.601-4.832h0.752v8h-1.28V173.022z M122.303,166.526c0.107,0.491,0.291,0.832,0.553,1.024c0.262,0.191,0.562,0.287,0.904,0.287
	c0.341,0,0.645-0.102,0.912-0.304c0.266-0.202,0.447-0.533,0.543-0.991l0.961,0.303c-0.096,0.619-0.371,1.094-0.824,1.425
	s-0.994,0.495-1.624,0.495c-0.288,0-0.573-0.037-0.856-0.111c-0.282-0.074-0.535-0.187-0.76-0.336s-0.416-0.342-0.576-0.576
	s-0.267-0.512-0.32-0.832L122.303,166.526z"/>
<path d="M135.487,174.158h-0.735v3.6h-1.281v-8h1.281v3.617l0.688-0.225l2.56-3.393h1.392l-2.479,3.217l-0.672,0.527l0.832,0.641
	l2.672,3.615h-1.584L135.487,174.158z"/>
<path d="M149.296,170.879h-2.336c-0.032,0.447-0.063,0.93-0.097,1.447c-0.031,0.518-0.08,1.035-0.144,1.553
	s-0.149,1.013-0.256,1.487s-0.242,0.894-0.407,1.256c-0.164,0.362-0.365,0.653-0.604,0.872s-0.522,0.328-0.852,0.328
	c-0.201,0-0.376-0.011-0.524-0.031c-0.148-0.021-0.28-0.059-0.397-0.113l0.191-1.071c0.129,0.042,0.268,0.063,0.416,0.063
	c0.214,0,0.406-0.09,0.576-0.271c0.171-0.182,0.32-0.525,0.448-1.032s0.235-1.208,0.32-2.104c0.085-0.896,0.144-2.063,0.176-3.504
	h4.769v8h-1.28V170.879z"/>
<path d="M163.919,173.006l0.097-1.52h-0.08l-0.576,1.232l-1.936,3.136h-0.449l-2.016-3.136l-0.527-1.232h-0.064l0.128,1.504v4.768
	h-1.185v-8h1.265l2.239,3.584l0.465,0.929h0.031l0.48-0.96l2.096-3.553h1.28v8h-1.248V173.006z"/>
<path d="M176.799,174.223h-3.615v3.535h-1.281v-8h1.281v3.345h3.615v-3.345h1.28v8h-1.28V174.223z"/>
<path d="M8.945,192.958c0-1.354,0.301-2.392,0.904-3.112c0.603-0.72,1.469-1.08,2.6-1.08c0.597,0,1.117,0.1,1.56,0.297
	c0.442,0.197,0.808,0.479,1.096,0.848c0.288,0.367,0.501,0.811,0.64,1.328s0.208,1.09,0.208,1.72c0,1.354-0.301,2.392-0.904,3.112
	c-0.603,0.72-1.47,1.08-2.6,1.08c-0.598,0-1.118-0.1-1.56-0.297c-0.443-0.197-0.808-0.479-1.096-0.848
	c-0.288-0.367-0.501-0.811-0.64-1.328C9.014,194.16,8.945,193.588,8.945,192.958z M10.273,192.958c0,0.405,0.04,0.795,0.12,1.168
	c0.08,0.374,0.205,0.698,0.376,0.976c0.17,0.277,0.395,0.502,0.672,0.672c0.277,0.172,0.613,0.256,1.008,0.256
	c1.45,0.012,2.176-1.013,2.176-3.071c0-0.416-0.04-0.811-0.12-1.185c-0.08-0.373-0.206-0.697-0.376-0.976
	c-0.17-0.276-0.395-0.499-0.672-0.664s-0.613-0.247-1.008-0.247C10.999,189.875,10.273,190.899,10.273,192.958z"/>
<path d="M27.057,190.078h-3.536v6.88h-1.28v-8h6.096v8h-1.28V190.078z"/>
<path d="M35.073,188.958h0.88l0.24,0.96h0.064c0.245-0.373,0.562-0.658,0.952-0.855c0.389-0.197,0.834-0.297,1.336-0.297
	c1.066,0,1.861,0.314,2.384,0.944s0.784,1.659,0.784,3.088c0,0.673-0.088,1.278-0.264,1.815c-0.176,0.539-0.424,0.996-0.744,1.369
	c-0.32,0.373-0.707,0.661-1.16,0.863c-0.454,0.203-0.958,0.305-1.512,0.305c-0.395,0-0.707-0.024-0.936-0.072
	c-0.229-0.049-0.478-0.131-0.744-0.248v3.328h-1.28V188.958z M38.305,189.887c-0.544,0-0.973,0.141-1.288,0.424
	c-0.314,0.282-0.536,0.711-0.664,1.287v3.969c0.192,0.148,0.41,0.264,0.656,0.344c0.245,0.08,0.57,0.119,0.976,0.119
	c0.736,0,1.32-0.273,1.752-0.823s0.648-1.357,0.648-2.424c0-0.438-0.038-0.835-0.112-1.192c-0.075-0.357-0.195-0.661-0.36-0.912
	c-0.165-0.25-0.378-0.445-0.64-0.584C39.012,189.955,38.689,189.887,38.305,189.887z"/>
<path d="M53.457,196.43c-0.32,0.234-0.699,0.414-1.136,0.536s-0.896,0.185-1.376,0.185c-0.619,0-1.141-0.1-1.568-0.297
	s-0.776-0.479-1.048-0.848c-0.272-0.367-0.47-0.811-0.592-1.328s-0.184-1.09-0.184-1.72c0-1.354,0.298-2.392,0.896-3.112
	c0.597-0.72,1.456-1.08,2.576-1.08c0.512,0,0.947,0.041,1.304,0.121c0.357,0.079,0.68,0.193,0.968,0.344l-0.368,1.104
	c-0.246-0.139-0.518-0.248-0.816-0.328c-0.299-0.08-0.619-0.119-0.96-0.119c-1.515,0-2.272,1.023-2.272,3.071
	c0,0.405,0.04,0.792,0.12,1.16s0.213,0.693,0.4,0.976c0.187,0.283,0.432,0.51,0.736,0.68c0.304,0.172,0.68,0.256,1.128,0.256
	c0.384,0,0.728-0.058,1.032-0.176c0.304-0.117,0.552-0.25,0.744-0.399L53.457,196.43z"/>
<path d="M64.208,190.078h-2.496v6.88h-1.28v-6.88h-2.496v-1.12h6.272V190.078z"/>
<path d="M71.607,194.143l0.45,1.535h0.081l0.353-1.552l1.558-5.168h1.28l-2.368,7.185c-0.181,0.521-0.36,1.029-0.536,1.52
	c-0.176,0.49-0.371,0.928-0.584,1.312c-0.214,0.383-0.454,0.689-0.72,0.92c-0.267,0.229-0.576,0.344-0.928,0.344
	c-0.384,0-0.699-0.054-0.944-0.16l0.224-1.104c0.139,0.053,0.272,0.08,0.4,0.08c0.298,0,0.586-0.158,0.864-0.473
	c0.277-0.314,0.506-0.855,0.688-1.624l-3.216-8h1.472L71.607,194.143z"/>
<path d="M84,197.021c-0.182,0.064-0.371,0.102-0.568,0.112c-0.198,0.011-0.376,0.017-0.536,0.017c-0.971,0-1.717-0.342-2.24-1.024
	c-0.522-0.683-0.784-1.738-0.784-3.168c0-1.365,0.288-2.395,0.864-3.088c0.576-0.693,1.408-1.04,2.496-1.04
	c0.298,0,0.555,0.021,0.768,0.064v-3.137h1.216v3.152c0.192-0.032,0.363-0.053,0.512-0.064c0.149-0.01,0.293-0.016,0.432-0.016
	c1.056,0,1.85,0.307,2.384,0.92c0.533,0.613,0.8,1.629,0.8,3.048c0,0.673-0.072,1.278-0.216,1.815
	c-0.144,0.539-0.354,0.996-0.632,1.369c-0.278,0.373-0.616,0.661-1.016,0.863c-0.4,0.203-0.861,0.305-1.384,0.305
	c-0.096,0-0.238-0.008-0.424-0.024s-0.339-0.046-0.456-0.088v3.12H84V197.021z M83.216,196.094c0.128,0,0.256-0.005,0.384-0.016
	s0.267-0.032,0.416-0.064v-6.063c-0.128-0.021-0.248-0.038-0.36-0.048c-0.112-0.011-0.248-0.016-0.408-0.016
	c-0.662,0-1.176,0.247-1.544,0.743c-0.368,0.496-0.552,1.272-0.552,2.328c0,0.448,0.04,0.864,0.12,1.248s0.205,0.718,0.376,1
	c0.17,0.282,0.387,0.501,0.648,0.655C82.557,196.017,82.864,196.094,83.216,196.094z M85.92,189.887
	c-0.128,0-0.243,0.002-0.344,0.008c-0.102,0.005-0.227,0.029-0.376,0.071v6.08c0.106,0.021,0.226,0.034,0.36,0.04
	c0.133,0.006,0.28,0.008,0.44,0.008c0.683,0,1.197-0.282,1.544-0.848s0.52-1.381,0.52-2.448c0-0.906-0.158-1.618-0.472-2.136
	S86.72,189.887,85.92,189.887z"/>
<path d="M97.648,192.861l-2.688-3.903h1.568l1.521,2.208l0.447,0.912l0.465-0.912l1.551-2.208h1.44l-2.704,3.84l2.864,4.16h-1.521
	l-1.695-2.433l-0.48-0.959l-0.496,0.959l-1.728,2.433h-1.424L97.648,192.861z"/>
<path d="M114.816,198.99h-0.864l-0.239-2.032h-6.08v-8h1.279v6.88h3.473v-6.88h1.279v6.88h1.152V198.99z"/>
<path d="M121.504,188.958v2.176c0,0.288,0.017,0.547,0.049,0.776c0.031,0.229,0.096,0.427,0.191,0.592
	c0.096,0.166,0.234,0.293,0.416,0.385c0.182,0.09,0.422,0.135,0.721,0.135c0.479,0,0.874-0.053,1.184-0.16
	c0.309-0.105,0.544-0.223,0.704-0.352v-3.552h1.28v8h-1.28v-3.36c-0.171,0.107-0.425,0.225-0.761,0.353s-0.797,0.192-1.383,0.192
	c-0.396,0-0.742-0.043-1.041-0.129c-0.299-0.085-0.549-0.234-0.752-0.447c-0.202-0.214-0.354-0.496-0.455-0.849
	c-0.102-0.352-0.152-0.794-0.152-1.327v-2.433H121.504z"/>
<path d="M143.248,199.038h-0.863l-0.24-2.08h-9.36v-8h1.28v6.88h2.736v-6.88h1.279v6.88h2.736v-6.88h1.279v6.88h1.152V199.038z"/>
<path d="M150.561,192.014c0.256-0.042,0.498-0.072,0.728-0.088s0.45-0.023,0.664-0.023c0.554,0,1.024,0.061,1.407,0.184
	c0.385,0.123,0.696,0.291,0.937,0.504c0.24,0.214,0.413,0.467,0.521,0.76c0.105,0.294,0.16,0.605,0.16,0.937
	c0,0.971-0.291,1.675-0.873,2.112c-0.581,0.438-1.485,0.656-2.711,0.656c-0.353,0-0.699-0.009-1.041-0.025
	c-0.342-0.016-0.698-0.039-1.072-0.071v-6.88h-1.76v-1.12h3.041V192.014z M150.561,195.838c0.416,0.064,0.789,0.096,1.119,0.096
	c0.672,0,1.168-0.13,1.488-0.392c0.32-0.261,0.48-0.632,0.48-1.112c0-0.426-0.155-0.778-0.465-1.056
	c-0.309-0.277-0.795-0.416-1.455-0.416c-0.182,0-0.374,0.005-0.576,0.017c-0.203,0.01-0.4,0.042-0.592,0.096V195.838z"/>
<path d="M161.68,192.014c0.256-0.042,0.502-0.072,0.736-0.088s0.459-0.023,0.672-0.023c0.544,0,1,0.061,1.368,0.184
	s0.664,0.291,0.888,0.504c0.225,0.214,0.381,0.467,0.473,0.76c0.09,0.294,0.136,0.605,0.136,0.937c0,0.971-0.27,1.675-0.808,2.112
	c-0.539,0.438-1.411,0.656-2.617,0.656c-0.682,0-1.392-0.033-2.127-0.097v-8h1.279V192.014z M161.68,195.838
	c0.395,0.064,0.773,0.096,1.137,0.096c0.672,0,1.141-0.13,1.408-0.392c0.266-0.261,0.399-0.632,0.399-1.112
	c0-0.426-0.131-0.778-0.392-1.056c-0.262-0.277-0.718-0.416-1.369-0.416c-0.181,0-0.378,0.005-0.592,0.017
	c-0.213,0.01-0.41,0.042-0.592,0.096V195.838z M167.216,188.958h1.28v8h-1.28V188.958z"/>
<path d="M176.512,192.014c0.256-0.042,0.502-0.072,0.736-0.088s0.459-0.023,0.672-0.023c0.555,0,1.023,0.061,1.408,0.184
	c0.384,0.123,0.695,0.291,0.936,0.504c0.24,0.214,0.414,0.467,0.521,0.76c0.106,0.294,0.159,0.605,0.159,0.937
	c0,0.971-0.29,1.675-0.871,2.112c-0.582,0.438-1.486,0.656-2.713,0.656c-0.682,0-1.392-0.033-2.127-0.097v-8h1.279V192.014z
	 M176.512,195.838c0.395,0.064,0.773,0.096,1.137,0.096c0.672,0,1.168-0.13,1.488-0.392c0.319-0.261,0.479-0.632,0.479-1.112
	c0-0.426-0.155-0.778-0.464-1.056c-0.311-0.277-0.795-0.416-1.457-0.416c-0.181,0-0.378,0.005-0.592,0.017
	c-0.213,0.01-0.41,0.042-0.592,0.096V195.838z"/>
<path d="M10.097,211.598h3.376c-0.053-0.757-0.274-1.365-0.662-1.823c-0.388-0.458-0.938-0.688-1.65-0.688
	c-0.436,0-0.816,0.059-1.14,0.176c-0.324,0.118-0.587,0.246-0.79,0.385l-0.446-0.977c0.331-0.224,0.709-0.396,1.136-0.52
	s0.923-0.184,1.488-0.184c1.184,0,2.048,0.367,2.592,1.104s0.816,1.766,0.816,3.088c0,1.365-0.314,2.405-0.944,3.12
	s-1.504,1.071-2.624,1.071c-0.501,0-0.962-0.039-1.384-0.119s-0.776-0.2-1.064-0.36l0.367-1.088
	c0.245,0.139,0.544,0.248,0.901,0.328c0.356,0.08,0.704,0.12,1.044,0.12c1.488,0.01,2.28-0.848,2.376-2.576h-3.392V211.598z"/>
<path d="M27.313,216.35c-0.576,0-1.069-0.088-1.48-0.264s-0.747-0.426-1.008-0.752c-0.262-0.325-0.459-0.72-0.592-1.184
	c-0.133-0.465-0.216-0.974-0.248-1.528h-1.6v3.536h-1.28v-8h1.28v3.344h1.616c0.085-1.141,0.397-2.016,0.936-2.623
	c0.539-0.609,1.341-0.912,2.408-0.912c0.586,0,1.085,0.098,1.496,0.295s0.747,0.48,1.008,0.849c0.261,0.368,0.45,0.811,0.568,1.327
	c0.117,0.518,0.176,1.092,0.176,1.721c0,1.355-0.27,2.393-0.808,3.111C29.246,215.99,28.422,216.35,27.313,216.35z M25.233,212.158
	c0,0.416,0.032,0.811,0.096,1.184c0.064,0.374,0.177,0.702,0.338,0.984c0.16,0.283,0.377,0.504,0.65,0.664s0.613,0.24,1.02,0.24
	c0.686,0,1.178-0.248,1.478-0.744c0.3-0.496,0.45-1.271,0.45-2.328c0-0.416-0.03-0.811-0.088-1.184
	c-0.059-0.373-0.164-0.701-0.313-0.984s-0.348-0.504-0.594-0.664c-0.247-0.16-0.562-0.24-0.948-0.24
	c-0.739,0-1.272,0.248-1.598,0.744C25.396,210.326,25.233,211.102,25.233,212.158z"/>
<path d="M40.865,212.846l-1.232,0.192l-2.112,3.12h-1.552l1.92-2.736l0.64-0.592c-0.555-0.085-1.027-0.309-1.416-0.672
	c-0.389-0.362-0.584-0.854-0.584-1.473c0-0.479,0.083-0.89,0.248-1.231c0.166-0.341,0.402-0.624,0.712-0.848
	s0.677-0.387,1.104-0.488c0.427-0.101,0.907-0.151,1.44-0.151c0.395,0,0.763,0.026,1.104,0.08c0.341,0.053,0.677,0.111,1.008,0.176
	v7.936h-1.28V212.846z M40.865,209.246c-0.139-0.053-0.293-0.094-0.464-0.12c-0.171-0.026-0.32-0.04-0.448-0.04
	c-0.683,0-1.203,0.123-1.56,0.368c-0.357,0.245-0.536,0.635-0.536,1.168c0,0.479,0.189,0.851,0.568,1.112s0.877,0.392,1.496,0.392
	c0.011,0,0.026,0,0.048,0s0.064,0,0.128,0c0.064,0,0.154-0.003,0.272-0.008c0.117-0.005,0.282-0.013,0.496-0.024V209.246z"/>
<path fill="#FFFFFF" d="M56.156,222.768h2.52v-8.711l0.18-1.062l-0.72,0.846l-1.98,1.422l-0.684-0.918l3.96-3.06h0.648v11.483h2.466
	v1.332h-6.39V222.768z"/>
<path fill="#FFFFFF" d="M77.576,214.362c0,0.636-0.117,1.286-0.351,1.952s-0.54,1.336-0.918,2.008s-0.801,1.329-1.269,1.971
	c-0.468,0.643-0.936,1.251-1.404,1.827l-0.882,0.774v0.072l1.152-0.199h3.924v1.332h-7.164v-0.521
	c0.264-0.275,0.582-0.618,0.954-1.025c0.372-0.408,0.759-0.861,1.161-1.359s0.798-1.026,1.188-1.584
	c0.39-0.559,0.744-1.125,1.062-1.701s0.573-1.146,0.765-1.71s0.288-1.099,0.288-1.603c0-0.588-0.168-1.076-0.504-1.467
	c-0.336-0.39-0.846-0.585-1.53-0.585c-0.456,0-0.9,0.093-1.332,0.279c-0.432,0.187-0.804,0.399-1.116,0.639l-0.594-1.026
	c0.42-0.359,0.918-0.641,1.494-0.846c0.576-0.203,1.194-0.306,1.854-0.306c0.516,0,0.972,0.075,1.368,0.226
	c0.396,0.149,0.731,0.362,1.008,0.639c0.276,0.275,0.486,0.603,0.63,0.98C77.504,213.508,77.576,213.918,77.576,214.362z"/>
<path fill="#FFFFFF" d="M89.096,223.057c0.408,0,0.786-0.061,1.134-0.181c0.348-0.12,0.648-0.297,0.9-0.53
	c0.252-0.234,0.45-0.514,0.594-0.838s0.216-0.678,0.216-1.062c0-0.84-0.249-1.464-0.747-1.872s-1.185-0.612-2.061-0.612H87.8v-0.522
	l2.592-3.995l0.828-0.792l-1.17,0.18h-3.564V211.5h6.426v0.521l-2.862,4.303l-0.63,0.521v0.037l0.612-0.127
	c0.48,0.012,0.924,0.1,1.332,0.262c0.408,0.162,0.762,0.396,1.062,0.701c0.3,0.307,0.534,0.672,0.702,1.098
	c0.168,0.427,0.252,0.91,0.252,1.449c0,0.648-0.114,1.225-0.342,1.729c-0.228,0.504-0.537,0.927-0.927,1.27
	c-0.39,0.342-0.849,0.603-1.377,0.782c-0.528,0.181-1.086,0.271-1.674,0.271c-0.54,0-1.026-0.043-1.458-0.127
	c-0.432-0.084-0.81-0.191-1.134-0.323l0.378-1.278c0.276,0.133,0.603,0.243,0.981,0.333
	C88.205,223.012,88.628,223.057,89.096,223.057z"/>
<path fill="#FFFFFF" d="M109.652,220.23h-2.125v3.869h-1.403v-3.869h-5.544v-0.594l5.976-8.334h0.972v7.668h2.125V220.23z
	 M106.124,215.046l0.18-1.476h-0.054l-0.631,1.224l-2.537,3.438l-0.864,0.882l1.261-0.144h2.646V215.046z"/>
<path fill="#FFFFFF" d="M119.39,223.057c0.828,0,1.513-0.24,2.052-0.721c0.541-0.479,0.811-1.176,0.811-2.088
	c0-0.876-0.268-1.529-0.801-1.962c-0.535-0.433-1.27-0.647-2.205-0.647l-1.512,0.09V211.5h5.615v1.332h-4.266v3.582l0.773-0.036
	c1.188,0.013,2.125,0.343,2.809,0.99s1.025,1.578,1.025,2.79c0,0.672-0.113,1.27-0.342,1.791s-0.537,0.957-0.927,1.305
	s-0.849,0.612-1.377,0.792c-0.528,0.181-1.093,0.271-1.692,0.271c-0.539,0-0.996-0.03-1.367-0.09
	c-0.373-0.061-0.721-0.15-1.045-0.271l0.379-1.224c0.275,0.107,0.572,0.188,0.891,0.242
	C118.529,223.029,118.922,223.057,119.39,223.057z"/>
<path fill="#FFFFFF" d="M139.748,220.303c0,0.551-0.084,1.07-0.252,1.557s-0.414,0.912-0.738,1.277
	c-0.324,0.367-0.727,0.654-1.206,0.864s-1.026,0.315-1.638,0.315c-0.601,0-1.141-0.097-1.62-0.288
	c-0.48-0.192-0.895-0.478-1.242-0.854c-0.349-0.379-0.615-0.844-0.801-1.396c-0.187-0.552-0.279-1.188-0.279-1.908
	c0-1.188,0.153-2.282,0.459-3.285c0.306-1.001,0.729-1.874,1.269-2.618c0.541-0.744,1.18-1.348,1.918-1.81s1.539-0.753,2.402-0.873
	l0.307,1.151c-0.673,0.121-1.285,0.349-1.836,0.685c-0.553,0.336-1.035,0.75-1.449,1.242s-0.754,1.044-1.018,1.655
	c-0.264,0.612-0.443,1.242-0.539,1.891c0.191-0.324,0.516-0.621,0.971-0.891c0.457-0.271,1.015-0.405,1.675-0.405
	c1.128,0,2.013,0.323,2.655,0.972C139.427,218.232,139.748,219.139,139.748,220.303z M138.254,220.446
	c0-0.853-0.198-1.494-0.594-1.927c-0.396-0.432-1.008-0.647-1.836-0.647c-0.588,0-1.096,0.144-1.521,0.433
	c-0.426,0.287-0.723,0.611-0.891,0.971c-0.024,0.169-0.036,0.307-0.036,0.414c0,0.109,0,0.229,0,0.361
	c0,0.371,0.051,0.737,0.153,1.098c0.102,0.359,0.26,0.681,0.477,0.963c0.216,0.281,0.482,0.51,0.801,0.684s0.693,0.262,1.125,0.262
	c0.348,0,0.663-0.066,0.945-0.199c0.281-0.131,0.524-0.311,0.729-0.539s0.363-0.504,0.477-0.828
	C138.197,221.166,138.254,220.818,138.254,220.446z"/>
<path fill="#FFFFFF" d="M148.207,224.1l4.519-10.547l0.792-0.883l-1.062,0.162h-5.129V211.5h7.523v0.486l-5.202,12.113H148.207z"/>
<path fill="#FFFFFF" d="M161.816,221.094c0-0.756,0.197-1.412,0.594-1.971s1.014-1.064,1.854-1.521
	c-0.3-0.18-0.578-0.369-0.837-0.566c-0.258-0.198-0.485-0.423-0.684-0.676c-0.198-0.252-0.354-0.533-0.468-0.846
	c-0.115-0.312-0.172-0.672-0.172-1.08c0-0.467,0.082-0.893,0.244-1.277c0.161-0.385,0.396-0.714,0.701-0.99
	c0.307-0.275,0.672-0.492,1.098-0.648c0.426-0.155,0.91-0.233,1.449-0.233c0.504,0,0.96,0.071,1.368,0.216
	c0.407,0.145,0.753,0.342,1.035,0.594s0.501,0.553,0.657,0.9c0.155,0.348,0.234,0.732,0.234,1.152c0,0.684-0.156,1.287-0.469,1.809
	s-0.828,1.035-1.548,1.539c0.312,0.18,0.608,0.378,0.892,0.594c0.281,0.217,0.527,0.457,0.737,0.721s0.375,0.561,0.495,0.891
	c0.119,0.33,0.18,0.705,0.18,1.125c0,0.516-0.084,0.987-0.252,1.413s-0.414,0.792-0.738,1.098s-0.72,0.546-1.188,0.72
	c-0.469,0.174-1.002,0.262-1.602,0.262c-0.576,0-1.087-0.084-1.53-0.252c-0.444-0.168-0.819-0.396-1.125-0.685
	s-0.538-0.626-0.693-1.017S161.816,221.551,161.816,221.094z M167.773,220.914c0-0.359-0.071-0.675-0.215-0.945
	c-0.145-0.27-0.334-0.516-0.568-0.738c-0.233-0.221-0.5-0.422-0.801-0.603c-0.3-0.18-0.611-0.354-0.936-0.522
	c-0.732,0.408-1.254,0.865-1.566,1.369c-0.312,0.504-0.468,0.983-0.468,1.439c0,0.288,0.048,0.564,0.144,0.828
	c0.097,0.264,0.24,0.492,0.433,0.684c0.192,0.192,0.429,0.346,0.711,0.459c0.282,0.115,0.608,0.172,0.981,0.172
	c0.299,0,0.588-0.045,0.863-0.136c0.276-0.09,0.52-0.222,0.729-0.396s0.378-0.396,0.504-0.666
	C167.711,221.589,167.773,221.273,167.773,220.914z M163.508,214.398c0,0.336,0.066,0.633,0.198,0.891s0.309,0.489,0.53,0.693
	c0.223,0.204,0.478,0.393,0.766,0.566s0.588,0.34,0.9,0.495c0.539-0.42,0.938-0.834,1.197-1.241
	c0.258-0.408,0.387-0.858,0.387-1.351c0-0.612-0.189-1.083-0.567-1.413s-0.831-0.495-1.358-0.495c-0.324,0-0.613,0.054-0.865,0.162
	s-0.467,0.246-0.647,0.414c-0.18,0.168-0.315,0.363-0.405,0.585C163.553,213.928,163.508,214.158,163.508,214.398z"/>
<path fill="#FFFFFF" d="M176.863,215.316c0-0.576,0.084-1.11,0.252-1.603c0.168-0.491,0.414-0.918,0.738-1.278
	c0.324-0.359,0.729-0.641,1.215-0.846c0.486-0.203,1.054-0.306,1.701-0.306c1.225,0,2.178,0.396,2.862,1.188
	c0.685,0.791,1.026,1.907,1.026,3.348c0,1.355-0.153,2.541-0.459,3.555c-0.307,1.014-0.729,1.869-1.27,2.564
	c-0.54,0.697-1.179,1.24-1.917,1.63c-0.737,0.39-1.539,0.639-2.403,0.747l-0.324-1.152c0.696-0.107,1.324-0.312,1.882-0.611
	c0.558-0.301,1.038-0.678,1.44-1.135c0.401-0.455,0.729-0.975,0.98-1.557s0.426-1.215,0.521-1.899
	c-0.324,0.384-0.681,0.651-1.07,0.802c-0.391,0.149-0.903,0.225-1.539,0.225c-0.492,0-0.957-0.081-1.395-0.243
	c-0.439-0.162-0.826-0.399-1.162-0.711s-0.6-0.696-0.791-1.151C176.96,216.426,176.863,215.904,176.863,215.316z M178.357,215.172
	c0,0.853,0.226,1.491,0.676,1.917c0.449,0.427,1.041,0.64,1.772,0.64c0.588,0,1.092-0.096,1.513-0.289
	c0.42-0.191,0.72-0.443,0.899-0.756c0.024-0.155,0.036-0.293,0.036-0.414c0-0.119,0-0.245,0-0.377c0-0.433-0.051-0.85-0.152-1.252
	c-0.104-0.401-0.256-0.762-0.459-1.08c-0.205-0.317-0.472-0.566-0.802-0.746s-0.718-0.271-1.161-0.271
	c-0.732,0-1.303,0.231-1.71,0.693S178.357,214.344,178.357,215.172z"/>
</svg>
